<?xml version="1.0" encoding="UTF-8" standalone="no"?>
<!DOCTYPE svg PUBLIC "-//W3C//DTD SVG 1.1//EN" "http://www.w3.org/Graphics/SVG/1.1/DTD/svg11.dtd">
<svg width="100%" height="100%" viewBox="0 0 1334 709" version="1.1" xmlns="http://www.w3.org/2000/svg" xmlns:xlink="http://www.w3.org/1999/xlink" xml:space="preserve" xmlns:serif="http://www.serif.com/" style="fill-rule:evenodd;clip-rule:evenodd;stroke-linejoin:round;stroke-miterlimit:2;">
    <g transform="matrix(1,0,0,1,-3718,-126)">
        <g transform="matrix(1,0,0,1,-71,0)">
            <g transform="matrix(1,0,0,1,398.995,223.285)">
                <path d="M4723.73,-97C4576.61,23.999 4345.92,-75.956 4152.53,-79.638C4022.22,-82.119 3892.02,-70.473 3761.8,-65.077C3719.22,-63.313 3386.19,3.241 3390.34,15.835C3403.67,56.293 3420.08,111.032 3436.91,153.267C3448.29,181.829 3461.68,216.737 3484.06,239.537C3494.32,249.986 3509.19,256.976 3521.43,263.58C3549.05,278.472 3577.64,290.775 3603.36,309.057C3633.78,330.679 3658.84,359.347 3687.48,383.007C3716.28,406.797 3749.91,430.452 3782.51,448.847C3860.99,493.121 4170.75,616.8 4261.24,610.54C4291.26,608.464 4326.9,607.084 4356.53,596.606C4410.04,577.68 4455.93,547.098 4502.38,515.08C4522.88,500.945 4544.18,487.819 4563.43,472.013C4581.92,456.823 4599.5,436.582 4610.43,415.183C4614.13,407.93 4616.84,400.167 4619.1,392.343C4623.51,377.062 4633.96,345.55 4623.72,328.561C4614.9,313.93 4587.94,311.939 4573.77,309.934C4536.71,304.69 4498.9,306.855 4461.95,300.83C4451.24,299.083 4430.16,291.425 4420.36,286.964C4410.89,282.657 4401.58,277.984 4392.49,272.929C4368.66,259.678 4339.82,234.381 4348.02,203.722C4349.78,197.173 4353.32,190.404 4357.18,184.937C4378.46,154.792 4716.47,8.174 4706.41,-72.332" style="fill:rgb(140,184,231);"/>
            </g>
        </g>
    </g>
</svg>
