<?xml version="1.0" encoding="UTF-8" standalone="no"?>
<!DOCTYPE svg PUBLIC "-//W3C//DTD SVG 1.1//EN" "http://www.w3.org/Graphics/SVG/1.1/DTD/svg11.dtd">
<svg width="100%" height="100%" viewBox="0 0 2732 2048" version="1.1" xmlns="http://www.w3.org/2000/svg" xmlns:xlink="http://www.w3.org/1999/xlink" xml:space="preserve" xmlns:serif="http://www.serif.com/" style="fill-rule:evenodd;clip-rule:evenodd;stroke-linejoin:round;stroke-miterlimit:2;">
    <g transform="matrix(1,0,0,1,-5593,0)">
        <rect id="Artboard3" x="5593" y="0" width="2732" height="2048" style="fill:none;"/>
        <clipPath id="_clip1">
            <rect id="Artboard31" serif:id="Artboard3" x="5593" y="0" width="2732" height="2048"/>
        </clipPath>
        <g clip-path="url(#_clip1)">
            <g transform="matrix(1,0,0,1,1419.28,194.039)">
                <path d="M3975.18,1088.33C3974.15,1001.46 3973.98,920.225 3971.46,833.377C3968.84,742.852 3966.49,737.771 3962.41,647.315C3960.91,614.121 3959.63,580.915 3958.8,547.698C3958.53,536.733 3959.05,525.763 3959.11,514.794C3959.14,508.033 3958.82,501.266 3959.08,494.51C3959.21,491.217 3959.44,487.883 3960.28,484.696C3961.09,481.602 3962.43,478.636 3964,475.848C3969.74,465.661 3990.76,473.515 3996.55,475.061C4016.24,480.327 4016.06,480.391 4035.85,485.263C4044.43,487.376 4059.33,488.447 4067.72,491.546C4076.13,494.654 4083.86,499.382 4092.1,502.906C4114.79,512.604 4122.03,513.172 4143.78,525.073C4154.25,530.803 4163.83,538.072 4174.3,543.809C4181.82,547.931 4220.2,566.021 4233.42,573.836C4258.88,588.892 4269.54,601.092 4296.76,621.809C4329.15,646.457 4367.17,663.571 4397.96,690.368C4417.58,707.442 4436.73,725.086 4455.27,743.323C4471.35,759.136 4482.3,778.724 4503.41,788.566C4545.74,808.295 4596.09,785.197 4633.39,765.117C4650.1,756.119 4661.98,740.588 4678.96,731.966C4713.31,714.532 4761.46,718.153 4787.57,748.49C4818.21,784.077 4819.66,837.336 4818,881.515C4816.36,925.378 4806.82,967.239 4796.78,1009.91C4786.39,1054.05 4767.71,1095.04 4741.87,1132.25C4719.41,1164.6 4687.05,1190.48 4669.7,1226C4640.85,1285.08 4631.78,1352.05 4607.29,1412.82C4595.12,1442.99 4585.3,1449.12 4559.43,1481.25C4550.51,1492.31 4518.04,1531.51 4505.51,1543.33C4503.03,1545.67 4499.6,1546.76 4496.49,1548.15C4473.81,1558.33 4450.05,1565.9 4426.91,1574.99C4404.01,1583.98 4331.67,1585.39 4326.67,1584.65C4312.03,1582.48 4297.45,1579.9 4282.99,1576.78C4192.8,1557.3 4103.69,1529.75 4015.86,1502.11C4000.97,1497.43 3986.34,1491.98 3971.71,1486.56C3967.49,1484.99 3963.32,1483.24 3959.33,1481.16C3957.69,1480.31 3955.01,1479.65 3954.92,1477.81C3953.18,1439.41 3966.69,1427.94 3966.94,1389.5C3967.54,1298.15 3970.86,1179.57 3975.18,1088.33Z" style="fill:rgb(225,179,200);"/>
            </g>
            <g transform="matrix(1,0,0,1,2692.99,-44.2282)">
                <path d="M4723.73,-97C4576.61,23.999 4345.92,-75.956 4152.53,-79.638C4022.22,-82.119 3892.02,-70.473 3761.8,-65.077C3719.22,-63.313 3386.19,3.241 3390.34,15.835C3403.67,56.293 3420.08,111.032 3436.91,153.267C3448.29,181.829 3461.68,216.737 3484.06,239.537C3494.32,249.986 3509.19,256.976 3521.43,263.58C3549.05,278.472 3577.64,290.775 3603.36,309.057C3633.78,330.679 3658.84,359.347 3687.48,383.007C3716.28,406.797 3749.91,430.452 3782.51,448.847C3860.99,493.121 4170.75,616.8 4261.24,610.54C4291.26,608.464 4326.9,607.084 4356.53,596.606C4410.04,577.68 4455.93,547.098 4502.38,515.08C4522.88,500.945 4544.18,487.819 4563.43,472.013C4581.92,456.823 4599.5,436.582 4610.43,415.183C4614.13,407.93 4616.84,400.167 4619.1,392.343C4623.51,377.062 4633.96,345.55 4623.72,328.561C4614.9,313.93 4587.94,311.939 4573.77,309.934C4536.71,304.69 4498.9,306.855 4461.95,300.83C4451.24,299.083 4430.16,291.425 4420.36,286.964C4410.89,282.657 4401.58,277.984 4392.49,272.929C4368.66,259.678 4339.82,234.381 4348.02,203.722C4349.78,197.173 4353.32,190.404 4357.18,184.937C4378.46,154.792 4716.47,8.174 4706.41,-72.332" style="fill:rgb(140,184,231);"/>
            </g>
            <g transform="matrix(1,0,0,1,2896.17,517.727)">
                <path d="M5524.42,299.015C5524.42,299.015 5515.24,1467.15 5492.99,1440.86C5428.33,1364.44 5193.94,1222.72 5075.56,1231.17C5017.15,1235.35 4992.88,1284.74 4953.98,1319.32C4934.22,1336.89 4912.94,1355.01 4891.16,1369.98C4799.35,1433.1 4664.81,1390.38 4707.77,1267.65C4738.19,1180.73 4821.33,1199.72 4886.09,1167.34C4919.81,1150.48 4941.46,1118.34 4957.02,1085.27C4964.02,1070.39 4976.55,1048.92 4972.22,1031.57C4946.35,928.096 4770.25,980.919 4760.45,892.759C4759.28,882.143 4758.23,871.547 4762.48,861.349C4776.16,828.511 4817.89,825.553 4848.6,835.005C4924.68,858.415 4929.94,921.573 5023.89,853.243C5147.46,763.372 5133.98,634.176 5224.51,536.107C5251.41,506.96 5313.81,450.975 5353.19,444.918C5389.31,439.36 5413.62,455.512 5447.41,430.733C5484.28,403.701 5505.95,337.992 5524.42,299.015Z" style="fill:rgb(237,163,126);"/>
            </g>
        </g>
    </g>
</svg>
