<?xml version="1.0" encoding="UTF-8" standalone="no"?><!DOCTYPE svg PUBLIC "-//W3C//DTD SVG 1.1//EN" "http://www.w3.org/Graphics/SVG/1.1/DTD/svg11.dtd"><svg width="100%" height="100%" viewBox="0 0 4040 2228" version="1.1" xmlns="http://www.w3.org/2000/svg" xmlns:xlink="http://www.w3.org/1999/xlink" xml:space="preserve" xmlns:serif="http://www.serif.com/" style="fill-rule:evenodd;clip-rule:evenodd;stroke-linejoin:round;stroke-miterlimit:2;"><rect id="Artboard2" x="-139.583" y="-508.333" width="4362.5" height="3231.25" style="fill:none;"/><g><path d="M202.194,691.268c-20.403,-4.965 -37.922,-10.981 -52.557,-18.047c-14.635,-7.066 -26.062,-18.316 -34.28,-33.75c-8.218,-15.434 -9.106,-36.385 -2.665,-62.854c8.991,-36.947 32.235,-83.859 69.732,-140.736c37.498,-56.878 82.093,-112.32 133.786,-166.327c-27.975,-5.055 -50.763,-6.22 -68.365,-3.495c-17.602,2.726 -30.562,10.378 -38.88,22.956c2.206,0.537 3.879,3.864 5.018,9.983c1.14,6.118 0.971,12.21 -0.505,18.276c-2.415,9.926 -8.739,16.71 -18.971,20.353c-10.232,3.643 -21.965,3.854 -35.2,0.634c-15.44,-3.758 -26.841,-10.913 -34.202,-21.466c-7.362,-10.553 -9.164,-23.549 -5.407,-38.99c4.563,-18.748 16.029,-34.065 34.4,-45.949c18.371,-11.884 41.622,-19.222 69.753,-22.014c28.132,-2.791 57.914,-0.362 89.346,7.287c11.58,2.818 25.716,7.134 42.408,12.948c62.663,-60.683 124.758,-107.632 186.286,-140.847c61.527,-33.214 115.176,-44.253 160.945,-33.115c26.469,6.442 47.311,15.602 62.527,27.482l-278.013,577.184l-119.11,-28.985l136.759,-284.759c-18.122,-14.339 -35.193,-25.795 -51.214,-34.366c-16.021,-8.572 -33.481,-16.033 -52.378,-22.384c-47.938,60.178 -90.593,123.247 -127.964,189.209c-37.371,65.962 -61.224,120.173 -71.556,162.633c-5.1,20.955 -4.997,37.335 0.307,49.139Zm421.832,-592.125c-26.798,6.912 -57.212,24.481 -91.241,52.706c-34.028,28.225 -69.146,63.924 -105.353,107.097c37.825,17.382 69.114,35.218 93.868,53.508l102.726,-213.311Z" style="fill-rule:nonzero;"/><path d="M975.884,795.438c-34.74,-8.454 -63.869,-21.968 -87.386,-40.541c-23.516,-18.572 -39.793,-40.494 -48.83,-65.765c-9.036,-25.271 -10.066,-52.244 -3.088,-80.918c5.905,-24.264 16.373,-45.08 31.406,-62.449c15.033,-17.369 32.643,-29.73 52.831,-37.083c20.189,-7.353 40.76,-8.48 61.715,-3.381c19.3,4.697 34.393,13.481 45.279,26.351c10.886,12.871 15.904,28.257 15.052,46.156c-28.674,-6.978 -53.404,-4.965 -74.189,6.04c-20.785,11.004 -34.331,29.465 -40.638,55.383c-5.77,23.712 -3.231,44.481 7.617,62.307c10.848,17.827 28.128,29.625 51.84,35.395c29.226,7.113 55.734,3.196 79.522,-11.751c23.789,-14.946 39.306,-37.308 46.553,-67.086c6.307,-25.917 5.11,-52.201 -3.592,-78.85c-8.701,-26.649 -23.363,-60.006 -43.986,-100.071c-21.458,-41.435 -36.783,-76.268 -45.976,-104.497c-9.193,-28.229 -10.233,-56.957 -3.121,-86.183c6.978,-28.675 21.248,-52.509 42.808,-71.502c21.561,-18.993 48.013,-31.685 79.357,-38.075c31.344,-6.391 64.662,-5.292 99.954,3.297c44.667,10.869 77.823,30.036 99.468,57.499c21.645,27.463 28.174,58.84 19.585,94.132c-5.636,23.16 -15.989,40.5 -31.058,52.02c-15.069,11.519 -31.978,14.997 -50.727,10.435c-20.954,-5.1 -35.693,-17.74 -44.216,-37.921c12.356,-5.17 23.11,-13.359 32.262,-24.566c9.152,-11.207 15.406,-23.703 18.761,-37.489c4.294,-17.646 2.477,-32.983 -5.45,-46.01c-7.928,-13.027 -20.991,-21.754 -39.188,-26.183c-22.057,-5.368 -42.029,-1.904 -59.915,10.39c-17.887,12.294 -29.782,30.572 -35.687,54.836c-5.367,22.057 -4.024,44.141 4.029,66.252c8.053,22.111 21.967,51.343 41.741,87.697c16.287,29.079 29.106,53.81 38.456,74.192c9.35,20.383 16.133,42.915 20.348,67.596c4.216,24.682 3.17,49.981 -3.137,75.899c-8.589,35.292 -26.16,64.893 -52.714,88.804c-26.554,23.911 -58.801,40.011 -96.74,48.302c-37.939,8.29 -77.588,7.403 -118.946,-2.662Z" style="fill-rule:nonzero;"/><path d="M1419.29,417.084l119.111,28.986l-28.332,58.816c33.342,-17.002 68.487,-21.008 105.433,-12.017c30.88,7.515 52.937,23.688 66.169,48.52c13.232,24.832 14.212,60.408 2.94,106.728c-10.601,43.564 -27.645,85.998 -51.13,127.302c-23.486,41.304 -54.184,73.844 -92.095,97.62c-37.911,23.775 -81.681,29.624 -131.311,17.547c-35.292,-8.588 -56.312,-24.218 -63.062,-46.887l-92.127,191.359l-132.147,-0.618l296.551,-617.356Zm-17.344,395.299c26.469,6.442 51.408,-0.631 74.817,-21.219c23.409,-20.588 43.305,-47.141 59.687,-79.66c16.383,-32.519 28.198,-63.667 35.445,-93.445c11.138,-45.769 2.921,-72.009 -24.651,-78.718c-9.926,-2.416 -20.862,-1.28 -32.808,3.406c-11.946,4.686 -23.322,12.431 -34.129,23.235l-105.164,219.728c1.325,13.756 10.26,22.648 26.803,26.673Z" style="fill-rule:nonzero;"/><path d="M1716.12,965.063c-26.469,-6.441 -45.824,-19.912 -58.066,-40.414c-12.242,-20.502 -14.337,-47.296 -6.285,-80.382c3.355,-13.786 9.922,-31.171 19.701,-52.155l189.352,-392.867l126.445,13.248l-203.82,423.516c-4.218,7.734 -7.468,16.289 -9.75,25.663c-2.683,11.029 -1.976,19.525 2.122,25.487c4.098,5.962 12.213,10.419 24.344,13.371c15.992,3.892 32.524,0.76 49.598,-9.396c17.074,-10.155 31.26,-25.248 42.56,-45.278l34.74,8.455c-34.896,54.59 -70.919,88.608 -108.069,102.055c-37.149,13.448 -71.44,16.347 -102.872,8.697Z" style="fill-rule:nonzero;"/><path d="M1954.34,1023.03c-31.432,-7.649 -55.009,-24.776 -70.73,-51.382c-15.721,-26.605 -18.012,-62.792 -6.874,-108.562c9.93,-40.806 28.497,-81.701 55.701,-122.684c27.205,-40.984 60.727,-73.128 100.568,-96.434c39.841,-23.306 82.095,-29.524 126.761,-18.654c22.609,5.502 38.489,13.455 47.639,23.859c9.15,10.404 12.182,21.947 9.095,34.63l-1.409,5.79l19.767,-41.625l119.111,28.986l-127.994,266.74c-4.219,7.735 -7.469,16.289 -9.75,25.664c-5.771,23.712 2.649,38.318 25.258,43.82c15.44,3.758 30.557,-0.157 45.35,-11.743c14.794,-11.586 28.317,-28.155 40.571,-49.705l34.74,8.455c-34.896,54.59 -69.954,88.843 -105.174,102.76c-35.219,13.917 -67.994,17.185 -98.323,9.804c-23.16,-5.636 -40.194,-16.645 -51.103,-33.025c-10.908,-16.381 -14.721,-37.314 -11.439,-62.8c-21.494,18.717 -43.74,32.725 -66.738,42.023c-22.998,9.298 -48.007,10.659 -75.027,4.083Zm73.29,-67.15c13.786,3.355 29.011,0.197 45.674,-9.474c16.664,-9.671 30.229,-25.207 40.693,-46.609l85.196,-177.275c1.744,-7.169 0.698,-14.87 -3.139,-23.105c-3.837,-8.235 -11.546,-13.762 -23.126,-16.58c-22.057,-5.367 -45.029,2.622 -68.915,23.97c-23.886,21.348 -45.187,48.873 -63.902,82.577c-18.716,33.704 -31.428,64.341 -38.138,91.913c-6.71,27.572 -7.006,46.191 -0.889,55.857c6.117,9.666 14.966,15.908 26.546,18.726Z" style="fill-rule:nonzero;"/><path d="M2384.47,1127.71c-26.469,-6.441 -47.561,-16.977 -63.276,-31.607c-15.715,-14.63 -26.005,-31.152 -30.869,-49.566c-4.864,-18.415 -5.149,-36.445 -0.855,-54.091c4.428,-18.198 12.56,-33.011 24.395,-44.442c11.835,-11.43 24.557,-18.702 38.164,-21.815c30.9,-33.367 59.143,-67.819 84.73,-103.355c25.586,-35.536 51.117,-74.444 76.593,-116.725l126.444,13.248c-14.419,71.255 -28.318,148.77 -41.695,232.544c-5.295,33.758 -9.754,58.081 -13.377,72.969c-3.086,12.683 -6.739,22.892 -10.958,30.627c29.541,-8.582 52.748,-17.536 69.62,-26.865l34.741,8.455c-45.223,32.217 -95.795,56.416 -151.716,72.597c-20.152,13.202 -42.919,20.95 -68.301,23.243c-25.382,2.292 -49.929,0.554 -73.64,-5.217Zm-10.567,-71.786c20.403,4.965 38.973,3.059 55.712,-5.718c16.738,-8.777 28.395,-26.675 34.97,-53.696c4.026,-16.543 8.008,-40.106 11.946,-70.688c9.783,-64.206 16.465,-107.263 20.044,-129.172c-23.836,40.343 -58.85,87.019 -105.043,140.028c11.072,9.704 15.065,20.897 11.979,33.58c-2.55,10.477 -8.277,19.013 -17.183,25.607c-8.906,6.594 -18.598,8.617 -29.075,6.067c-11.58,-2.818 -18.152,-8.214 -19.717,-16.188c-4.831,19.852 -4.389,35.438 1.326,46.758c5.714,11.32 17.395,19.127 35.041,23.422Z" style="fill-rule:nonzero;"/><path d="M2889.86,1250.69c-29.226,-7.112 -48.31,-21.102 -57.25,-41.969c-8.94,-20.866 -10.123,-44.81 -3.547,-71.83c2.818,-11.58 7.384,-24.341 13.697,-38.284c6.313,-13.942 12.664,-27.437 19.052,-40.485c6.387,-13.047 10.602,-21.367 12.645,-24.959c9.108,-18.227 17.873,-36.245 26.296,-54.054c8.423,-17.81 14.043,-32.505 16.861,-44.085c6.844,-28.123 0.34,-44.6 -19.512,-49.431c-13.234,-3.221 -26.704,-0.074 -40.409,9.441c-13.706,9.515 -26.282,23.393 -37.731,41.634l-125.758,261.152l-119.11,-28.986l256.815,-533.279l126.445,13.248l-95.19,196.746c34.952,-23.619 70.902,-30.933 107.848,-21.942c28.123,6.844 48.578,19.999 61.363,39.465c12.786,19.466 15.354,44.915 7.705,76.347c-3.891,15.991 -10.149,33.306 -18.773,51.942c-8.624,18.637 -19.942,41.145 -33.955,67.523c-8.571,16.021 -16.628,31.729 -24.172,47.125c-7.543,15.395 -12.455,27.779 -14.736,37.154c-2.684,11.029 -2.282,20.18 1.204,27.453c3.487,7.274 11.296,12.387 23.428,15.339c13.234,3.221 22.736,3.781 28.504,1.68c-10.153,27.318 -25.383,46.099 -45.691,56.344c-20.308,10.244 -42.317,12.481 -66.029,6.711Z" style="fill-rule:nonzero;"/><path d="M3281.5,1344.25c-40.806,-9.93 -70.516,-28.258 -89.128,-54.983c-18.613,-26.725 -22.417,-62.696 -11.413,-107.914c9.125,-37.498 26.977,-77.253 53.555,-119.265c26.579,-42.011 61.022,-75.538 103.329,-100.58c42.308,-25.042 89.38,-31.256 141.215,-18.642c70.584,17.177 95.14,69.88 73.669,158.11l-0.201,0.827c1.52,0.954 4.486,1.968 8.897,3.042c18.198,4.428 40.327,4.702 66.387,0.823c26.06,-3.88 50.418,-10.365 73.073,-19.454l2.009,24.145c-20.151,13.203 -44.491,22.612 -73.018,28.228c-28.527,5.616 -58.558,7.215 -90.095,4.797c-16.623,49.108 -38.596,90.196 -65.919,123.265c-27.322,33.07 -57.804,56.317 -91.444,69.742c-33.639,13.425 -67.278,16.045 -100.916,7.859Zm51.202,-66.392c13.235,3.22 28.315,-1.141 45.239,-13.085c16.925,-11.944 33.538,-29.805 49.838,-53.583c16.3,-23.778 30.547,-51.121 42.742,-82.031c-14.084,-6.932 -18.71,-20.324 -13.879,-40.176c5.502,-22.608 17.672,-35.417 36.511,-38.426c3.326,-18.466 3.622,-31.682 0.888,-39.648c-2.734,-7.967 -9.616,-13.292 -20.645,-15.976c-18.197,-4.428 -39.064,4.512 -62.6,26.821c-23.535,22.309 -45.037,50.662 -64.506,85.058c-19.468,34.397 -32.624,65.657 -39.468,93.78c-6.441,26.469 -7.736,44.991 -3.884,55.566c3.851,10.575 13.773,17.808 29.764,21.7Z" style="fill-rule:nonzero;"/><path d="M3399.9,1588.59c-25.917,-6.307 -46.618,-20.252 -62.101,-41.835c-15.483,-21.582 -20.071,-45.332 -13.764,-71.25c5.771,-23.712 16.6,-41.812 32.489,-54.3c15.889,-12.488 34.591,-20.932 56.106,-25.334c21.514,-4.402 49.471,-7.675 83.87,-9.817l215.022,-447.95c23.912,-50.254 52.274,-82.194 85.086,-95.821c32.813,-13.626 66.038,-16.346 99.676,-8.161c25.918,6.307 46.618,20.252 62.101,41.835c15.483,21.583 20.071,45.333 13.764,71.25c-3.086,12.684 -6.665,23.787 -10.734,33.31l-38.877,-9.461c4.056,-11.863 6.419,-19.173 7.09,-21.93c2.147,-8.823 0.791,-16.454 -4.067,-22.893c-4.858,-6.439 -11.699,-10.733 -20.522,-12.88c-11.58,-2.818 -24.125,-0.468 -37.637,7.05c-13.511,7.518 -25.768,23.08 -36.769,46.687l-29.964,61.923l60.383,14.694l-13.842,31.678l-61.21,-14.896l-203.82,423.516c-24.045,50.805 -52.027,82.984 -83.946,96.536c-31.918,13.552 -64.696,16.235 -98.334,8.049Zm-1.11,-78.246c22.058,5.367 43.007,-12.314 62.849,-53.045l22.428,-45.358c-31.642,2.813 -56.897,8.787 -75.767,17.922c-18.869,9.134 -30.854,24.178 -35.953,45.133c-1.61,6.617 0.188,13.626 5.397,21.026c5.208,7.401 12.223,12.175 21.046,14.322Z" style="fill-rule:nonzero;"/><path d="M1103.36,1871.95c-62.312,-15.164 -104.257,-42.018 -125.834,-80.562c-21.578,-38.544 -23.509,-94.211 -5.796,-167.001c14.091,-57.901 39.043,-117.831 74.856,-179.791c35.813,-61.96 81.168,-111.523 136.064,-148.688c54.895,-37.165 115.705,-47.629 182.429,-31.391c41.358,10.064 72.505,27.282 93.443,51.652c20.938,24.37 26.844,55.304 17.719,92.802c-5.771,23.712 -14.987,41.182 -27.649,52.411c-12.662,11.229 -28.919,14.428 -48.771,9.597c-19.852,-4.831 -33.823,-15.824 -41.914,-32.979c11.133,-2.548 22.372,-10.327 33.715,-23.337c11.344,-13.01 18.961,-27.511 22.853,-43.502c3.623,-14.889 2.577,-27.994 -3.137,-39.314c-5.715,-11.32 -17.395,-19.127 -35.041,-23.422c-29.226,-7.112 -61.938,6.101 -98.136,39.639c-36.198,33.538 -69.812,78.656 -100.84,135.356c-31.029,56.699 -53.387,113.172 -67.075,169.419c-10.199,41.909 -10.813,75.637 -1.844,101.183c8.97,25.547 32.204,42.883 69.701,52.008c32.535,7.917 64.333,8.062 95.394,0.434c31.061,-7.627 59.738,-22.26 86.031,-43.898l17.011,12.901c-22.24,31.386 -49.688,55.371 -82.345,71.956c-32.656,16.585 -65.733,26.496 -99.23,29.735c-33.498,3.238 -64.032,1.502 -91.604,-5.208Z" style="fill-rule:nonzero;"/><path d="M1440.77,1943.55c-40.806,-9.93 -70.515,-28.258 -89.128,-54.983c-18.612,-26.725 -22.416,-62.696 -11.413,-107.914c9.126,-37.498 26.977,-77.253 53.556,-119.264c26.578,-42.012 61.021,-75.539 103.329,-100.581c42.308,-25.042 89.379,-31.256 141.214,-18.642c70.584,17.177 95.141,69.88 73.67,158.11l-0.202,0.828c1.521,0.954 4.486,1.967 8.898,3.041c18.197,4.428 40.326,4.703 66.386,0.823c26.06,-3.88 50.418,-10.364 73.073,-19.454l2.01,24.145c-20.152,13.203 -44.491,22.613 -73.018,28.228c-28.527,5.616 -58.559,7.215 -90.096,4.798c-16.623,49.107 -38.596,90.195 -65.918,123.265c-27.323,33.069 -57.804,56.316 -91.444,69.741c-33.64,13.425 -67.279,16.045 -100.917,7.859Zm51.203,-66.392c13.234,3.22 28.314,-1.141 45.239,-13.085c16.925,-11.944 33.537,-29.805 49.837,-53.583c16.3,-23.777 30.548,-51.121 42.742,-82.031c-14.083,-6.932 -18.71,-20.324 -13.879,-40.175c5.502,-22.609 17.673,-35.418 36.512,-38.427c3.325,-18.466 3.621,-31.682 0.887,-39.648c-2.734,-7.967 -9.615,-13.292 -20.644,-15.976c-18.198,-4.428 -39.064,4.512 -62.6,26.821c-23.536,22.309 -45.038,50.662 -64.506,85.058c-19.469,34.397 -32.625,65.657 -39.469,93.78c-6.441,26.469 -7.736,44.991 -3.884,55.566c3.852,10.575 13.773,17.808 29.765,21.7Z" style="fill-rule:nonzero;"/><path d="M1764.61,2024.11c-26.469,-6.441 -45.824,-19.913 -58.066,-40.414c-12.241,-20.502 -14.336,-47.296 -6.285,-80.382c3.355,-13.786 9.922,-31.171 19.701,-52.155l189.353,-392.867l126.444,13.248l-203.819,423.515c-4.219,7.735 -7.469,16.29 -9.75,25.664c-2.684,11.029 -1.977,19.524 2.121,25.486c4.098,5.962 12.213,10.42 24.344,13.372c15.992,3.891 32.525,0.76 49.598,-9.396c17.074,-10.155 31.26,-25.248 42.56,-45.278l34.74,8.455c-34.896,54.59 -70.919,88.608 -108.068,102.055c-37.15,13.447 -71.441,16.346 -102.873,8.697Z" style="fill-rule:nonzero;"/><path d="M2024.74,2085.66c-40.806,-9.93 -70.515,-28.258 -89.128,-54.983c-18.612,-26.725 -22.416,-62.696 -11.413,-107.914c9.126,-37.498 26.977,-77.252 53.556,-119.264c26.578,-42.012 61.021,-75.539 103.329,-100.581c42.308,-25.042 89.379,-31.256 141.214,-18.642c70.584,17.177 95.141,69.881 73.67,158.111l-0.202,0.827c1.521,0.954 4.486,1.968 8.898,3.041c18.197,4.428 40.326,4.703 66.386,0.823c26.06,-3.88 50.418,-10.364 73.073,-19.454l2.01,24.145c-20.152,13.203 -44.491,22.613 -73.018,28.229c-28.527,5.615 -58.559,7.215 -90.096,4.797c-16.623,49.107 -38.596,90.195 -65.918,123.265c-27.323,33.069 -57.804,56.316 -91.444,69.741c-33.64,13.425 -67.279,16.045 -100.917,7.859Zm51.203,-66.392c13.234,3.22 28.314,-1.141 45.239,-13.085c16.925,-11.944 33.537,-29.805 49.837,-53.582c16.3,-23.778 30.548,-51.122 42.742,-82.032c-14.083,-6.932 -18.71,-20.323 -13.879,-40.175c5.502,-22.609 17.673,-35.418 36.512,-38.427c3.325,-18.465 3.621,-31.682 0.887,-39.648c-2.734,-7.967 -9.615,-13.292 -20.644,-15.976c-18.198,-4.428 -39.064,4.512 -62.6,26.821c-23.536,22.309 -45.038,50.662 -64.506,85.059c-19.469,34.396 -32.625,65.656 -39.469,93.779c-6.441,26.469 -7.736,44.991 -3.884,55.566c3.851,10.575 13.773,17.808 29.765,21.7Z" style="fill-rule:nonzero;"/><path d="M2424.8,1741.44l119.111,28.985l-23.234,48.667c22.775,-11.98 42.818,-20.537 60.13,-25.669c17.312,-5.133 34.79,-5.552 52.436,-1.258c17.646,4.294 30.094,13.748 37.343,28.362c7.25,14.615 8.794,30.469 4.634,47.564c-3.891,15.991 -12.552,28.778 -25.981,38.36c-13.43,9.582 -29.519,12.092 -48.268,7.529c-12.132,-2.952 -19.561,-7.827 -22.288,-14.623c-2.726,-6.797 -3.851,-15.978 -3.373,-27.543c0.091,-7.572 -0.289,-13.213 -1.138,-16.924c-0.849,-3.711 -3.479,-6.104 -7.891,-7.177c-11.58,-2.818 -21.938,-2.856 -31.075,-0.115c-9.136,2.741 -21.455,8.359 -36.956,16.853l-142.663,298.216l-119.111,-28.986l188.324,-392.241Z" style="fill-rule:nonzero;"/></g></svg>