<?xml version="1.0" encoding="UTF-8" standalone="no"?>
<!DOCTYPE svg PUBLIC "-//W3C//DTD SVG 1.1//EN" "http://www.w3.org/Graphics/SVG/1.1/DTD/svg11.dtd">
<svg width="100%" height="100%" viewBox="0 0 826 1143" version="1.1" xmlns="http://www.w3.org/2000/svg" xmlns:xlink="http://www.w3.org/1999/xlink" xml:space="preserve" xmlns:serif="http://www.serif.com/" style="fill-rule:evenodd;clip-rule:evenodd;stroke-linejoin:round;stroke-miterlimit:2;">
    <g transform="matrix(1,0,0,1,-4355,-834)">
        <g transform="matrix(1,0,0,1,-71,0)">
            <g transform="matrix(1,0,0,1,-272.834,535.04)">
                <path d="M5524.42,299.015C5524.42,299.015 5515.24,1467.15 5492.99,1440.86C5428.33,1364.44 5193.94,1222.72 5075.56,1231.17C5017.15,1235.35 4992.88,1284.74 4953.98,1319.32C4934.22,1336.89 4912.94,1355.01 4891.16,1369.98C4799.35,1433.1 4664.81,1390.38 4707.77,1267.65C4738.19,1180.73 4821.33,1199.72 4886.09,1167.34C4919.81,1150.48 4941.46,1118.34 4957.02,1085.27C4964.02,1070.39 4976.55,1048.92 4972.22,1031.57C4946.35,928.096 4770.25,980.919 4760.45,892.759C4759.28,882.143 4758.23,871.547 4762.48,861.349C4776.16,828.511 4817.89,825.553 4848.6,835.005C4924.68,858.415 4929.94,921.573 5023.89,853.243C5147.46,763.372 5133.98,634.176 5224.51,536.107C5251.41,506.96 5313.81,450.975 5353.19,444.918C5389.31,439.36 5413.62,455.512 5447.41,430.733C5484.28,403.701 5505.95,337.992 5524.42,299.015Z" style="fill:rgb(237,163,126);"/>
            </g>
        </g>
    </g>
</svg>
