<?xml version="1.0" encoding="UTF-8" standalone="no"?>
<!DOCTYPE svg PUBLIC "-//W3C//DTD SVG 1.1//EN" "http://www.w3.org/Graphics/SVG/1.1/DTD/svg11.dtd">
<svg width="100%" height="100%" viewBox="0 0 861 1283" version="1.1" xmlns="http://www.w3.org/2000/svg" xmlns:xlink="http://www.w3.org/1999/xlink" xml:space="preserve" xmlns:serif="http://www.serif.com/" style="fill-rule:evenodd;clip-rule:evenodd;stroke-linejoin:round;stroke-miterlimit:2;">
    <g transform="matrix(1,0,0,1,-3207,-638)">
        <g transform="matrix(1,0,0,1,-71,0)">
            <g transform="matrix(1,0,0,1,-680.215,168.049)">
                <path d="M3975.18,1088.33C3974.14,1000.65 3973.99,921.126 3971.46,833.377C3968.88,743.836 3966.44,736.79 3962.41,647.315C3960.91,614.121 3959.63,580.915 3958.8,547.698C3958.53,536.733 3958.58,525.75 3959.11,514.794C3959.74,501.725 3956.77,486.754 3964,475.848C3966.94,471.406 3973.4,470.418 3978.23,470.927C3991.14,472.29 4002.07,477.354 4014.52,480.629C4021.56,482.48 4028.79,483.523 4035.85,485.263C4044.42,487.373 4059.34,488.449 4067.72,491.546C4076.13,494.655 4083.86,499.382 4092.1,502.906C4114.8,512.608 4122,513.16 4143.78,525.073C4154.25,530.801 4163.84,538.064 4174.3,543.809C4199.92,557.88 4228.32,568.147 4251.87,585.956C4267.14,597.51 4281.48,610.263 4296.76,621.809C4329.33,646.418 4366.41,664.246 4397.96,690.368C4410.75,700.957 4443.43,731.027 4455.27,743.323C4470.54,759.184 4482.6,779.108 4503.41,788.566C4545.52,807.694 4596.3,784.985 4633.39,765.117C4650.14,756.144 4661.84,740.442 4678.96,731.966C4713.59,714.821 4761.37,718.047 4787.57,748.49C4817.57,783.339 4819.4,838.238 4818,881.515C4816.59,925.167 4807.17,967.677 4796.78,1009.91C4788.46,1043.72 4777.19,1074.18 4759.64,1104.54C4737.48,1142.86 4708.61,1175.08 4680.17,1208.62C4652.74,1240.97 4653.34,1241.35 4631,1277.43C4626.18,1285.2 4562.64,1365.21 4538.02,1389.33C4529.16,1398.02 4518.69,1404.96 4509.8,1413.63C4494.68,1428.37 4485.77,1449 4486.44,1470.33C4487.55,1505.2 4499.43,1537.17 4516.23,1567.45C4525.44,1584.06 4540.91,1595.92 4549.38,1613.02C4566.53,1647.65 4563.3,1695.43 4532.86,1721.63C4510.6,1740.79 4480.99,1746.71 4452.72,1749.99C4426.56,1753.02 4399.2,1753.49 4373.03,1750.28C4308.96,1742.44 4241.28,1729.45 4184.16,1697.84C4153.49,1680.86 4124.52,1659.5 4098.14,1636.47C4082.2,1622.55 4067.13,1607.66 4051.16,1593.78C4033.28,1578.23 4015.17,1562.94 3991.9,1556.59C3986.79,1555.19 3973.26,1557.02 3971.59,1548.42C3969.56,1538 3968.08,1516.59 3967.92,1504.81C3967.4,1466.38 3966.69,1427.94 3966.94,1389.5C3967.54,1298.15 3970.86,1179.58 3975.18,1088.33Z" style="fill:rgb(225,179,200);"/>
            </g>
        </g>
    </g>
</svg>
