<?xml version="1.0" encoding="UTF-8" standalone="no"?>
<!DOCTYPE svg PUBLIC "-//W3C//DTD SVG 1.1//EN" "http://www.w3.org/Graphics/SVG/1.1/DTD/svg11.dtd">
<svg width="100%" height="100%" viewBox="0 0 589 219" version="1.1" xmlns="http://www.w3.org/2000/svg" xmlns:xlink="http://www.w3.org/1999/xlink" xml:space="preserve" xmlns:serif="http://www.serif.com/" style="fill-rule:evenodd;clip-rule:evenodd;stroke-linejoin:round;stroke-miterlimit:2;">
    <g transform="matrix(1,0,0,1,-2853,-154)">
        <g transform="matrix(1,0,0,1,-71,0)">
            <g transform="matrix(1,0,0,1,1017.76,-272.469)">
                <path d="M2231.68,547.852L2248.89,466.783L2281.5,466.783L2277.87,483.766C2285.42,477.275 2294.25,474.029 2304.37,474.029C2312.82,474.029 2319.54,476.822 2324.52,482.408C2329.5,487.994 2331.99,497.127 2331.99,509.808C2331.99,521.735 2330.26,533.775 2326.79,545.927C2323.31,558.08 2317.43,568.422 2309.12,576.951C2300.82,585.481 2289.88,589.746 2276.29,589.746C2266.63,589.746 2260.21,587.028 2257.04,581.594L2251.62,607L2495,607L2487.48,624.182L2247.88,624.57L2245.26,636.848L2211.07,645L2215.39,624.623L1982.59,625L1982.59,607L2219.13,607L2225.26,578.132C2224.14,579.311 2222.99,580.352 2221.83,581.254C2214.5,586.915 2206.92,589.746 2199.07,589.746C2189.86,589.746 2183.1,587.293 2178.8,582.386C2174.5,577.48 2172.35,571.403 2172.35,564.157C2172.35,560.986 2172.72,557.401 2173.48,553.4C2174.23,549.4 2175.03,545.512 2175.86,541.738C2176.69,537.964 2177.25,535.548 2177.55,534.492C2178.76,529.208 2179.89,523.999 2180.95,518.866C2182.01,513.734 2182.54,509.582 2182.54,506.412C2182.54,498.712 2179.82,494.863 2174.39,494.863C2170.46,494.863 2166.99,496.787 2163.97,500.637C2160.95,504.487 2158.53,509.506 2156.72,515.696L2141.32,588.387L2108.71,588.387L2125.24,510.261C2125.7,508.45 2125.92,506.563 2125.92,504.6C2125.92,497.957 2123.66,494.636 2119.13,494.636C2114.9,494.636 2111.24,496.561 2108.15,500.411C2105.05,504.26 2102.6,509.355 2100.79,515.696L2085.39,588.387L2052.78,588.387L2055.42,575.928C2053.5,577.931 2051.49,579.631 2049.38,581.027C2040.63,586.84 2031.95,589.746 2023.34,589.746C2016.1,589.746 2010.25,587.481 2005.79,582.952C2001.34,578.423 1999.11,571.63 1999.11,562.572C1999.11,561.551 1999.15,560.448 1999.24,559.262C1992.2,565.603 1984.38,571.236 1975.79,576.159C1971.41,580.839 1966.01,584.273 1959.6,586.462C1953.18,588.651 1946.73,589.746 1940.23,589.746C1932.99,589.746 1926.87,588.349 1921.89,585.556C1916.91,582.764 1913.21,579.14 1910.8,574.687C1908.38,570.233 1907.17,565.591 1907.17,560.76C1907.17,555.778 1908.34,551.438 1910.68,547.739C1913.02,544.04 1915.85,541.361 1919.17,539.7C1925.06,529.132 1930.19,518.451 1934.57,507.657C1938.95,496.863 1943.1,485.201 1947.03,472.67L1980.54,468.141C1981.3,487.465 1982.58,508.374 1984.39,530.868C1985.15,539.926 1985.52,546.494 1985.52,550.57C1985.52,554.042 1985.22,556.91 1984.62,559.175C1991.71,555.099 1997.15,551.325 2000.92,547.852L2016.32,475.161L2048.93,475.161L2032.63,552.155C2032.02,554.419 2031.72,556.835 2031.72,559.401C2031.72,562.421 2032.44,564.572 2033.87,565.855C2035.31,567.138 2037.68,567.78 2041.01,567.78C2045.38,567.78 2049.46,565.931 2053.23,562.232C2056.97,558.567 2059.67,553.828 2061.34,548.015L2076.78,475.161L2109.39,475.161L2106.9,486.937C2114.6,478.332 2123.81,474.029 2134.53,474.029C2147.81,474.029 2155.59,480.521 2157.85,493.504C2166.16,480.672 2176.65,474.255 2189.33,474.255C2197.03,474.255 2203.14,476.369 2207.67,480.596C2212.2,484.823 2214.47,491.239 2214.47,499.845C2214.47,504.223 2213.94,509.091 2212.88,514.451C2211.83,519.81 2210.32,526.339 2208.35,534.039C2207.14,538.719 2206.05,543.285 2205.07,547.739C2204.09,552.193 2203.6,555.703 2203.6,558.269C2203.6,561.288 2204.28,563.628 2205.64,565.289C2206.99,566.95 2209.33,567.78 2212.66,567.78C2217.18,567.78 2220.81,566.157 2223.53,562.911C2226.24,559.665 2228.96,554.646 2231.68,547.852L2231.68,547.852ZM2397.21,569.658C2393.85,574.56 2390.15,578.35 2386.12,581.027C2377.36,586.84 2368.68,589.746 2360.08,589.746C2352.83,589.746 2346.98,587.481 2342.53,582.952C2338.07,578.423 2335.85,571.63 2335.85,562.572C2335.85,558.797 2336.45,553.891 2337.66,547.852L2361.89,434.4L2395.4,429.871L2369.36,552.155C2368.76,554.419 2368.45,556.835 2368.45,559.401C2368.45,562.421 2369.17,564.572 2370.61,565.855C2372.04,567.138 2374.42,567.78 2377.74,567.78C2382.12,567.78 2386.19,565.931 2389.97,562.232C2391.92,560.32 2393.59,558.115 2394.97,555.618C2394.96,555.001 2394.95,554.375 2394.95,553.74C2394.95,543.323 2396.99,531.85 2401.06,519.319C2405.14,506.789 2411.78,495.957 2420.99,486.824C2430.2,477.69 2441.9,473.123 2456.09,473.123C2472.7,473.123 2481,480.37 2481,494.863C2481,503.317 2478.59,511.092 2473.75,518.187C2468.92,525.283 2462.51,530.982 2454.51,535.284C2446.5,539.587 2437.97,542.04 2428.92,542.644C2428.61,545.965 2428.46,548.23 2428.46,549.437C2428.46,561.968 2433.14,568.233 2442.5,568.233C2446.73,568.233 2451.26,567.101 2456.09,564.836C2460.92,562.572 2465.3,559.703 2469.22,556.231C2465.15,578.574 2452.09,589.746 2430.05,589.746C2419.03,589.746 2410.42,586.84 2404.23,581.027C2401.1,578.081 2398.75,574.291 2397.21,569.658ZM1932.99,571.856C1938.57,571.856 1943.25,570.195 1947.03,566.874C1950.8,563.553 1952.69,558.194 1952.69,550.796C1952.69,546.267 1952.24,539.926 1951.33,531.774C1949.82,514.564 1948.84,503.015 1948.39,497.127C1944.76,509.054 1938.65,523.32 1930.04,539.926C1933.52,541.738 1935.25,544.38 1935.25,547.852C1935.25,550.721 1934.31,553.287 1932.42,555.552C1930.53,557.816 1928.16,558.948 1925.29,558.948C1922.12,558.948 1920.08,557.967 1919.17,556.005C1919.17,561.439 1920.27,565.44 1922.46,568.006C1924.65,570.573 1928.16,571.856 1932.99,571.856ZM2269.27,570.045C2276.51,570.045 2282.51,566.648 2287.27,559.854C2292.03,553.061 2295.5,544.946 2297.69,535.511C2299.88,526.075 2300.97,517.281 2300.97,509.129C2300.97,496.599 2297.2,490.334 2289.65,490.334C2286.93,490.334 2284.18,491.315 2281.38,493.277C2278.59,495.24 2276.14,497.957 2274.02,501.43L2260.66,564.836C2261.87,568.308 2264.74,570.045 2269.27,570.045ZM2430.5,531.774C2436.24,531.623 2441.64,529.736 2446.69,526.113C2451.75,522.49 2455.83,517.847 2458.92,512.186C2462.02,506.525 2463.56,500.599 2463.56,494.41C2463.56,488.22 2461.68,485.125 2457.9,485.125C2452.62,485.125 2447.37,489.918 2442.16,499.505C2436.95,509.091 2433.07,519.848 2430.5,531.774ZM2038.74,462.933C2033.76,462.933 2029.53,461.197 2026.06,457.725C2022.59,454.252 2020.85,450.025 2020.85,445.043C2020.85,440.061 2022.59,435.796 2026.06,432.249C2029.53,428.701 2033.76,426.927 2038.74,426.927C2043.72,426.927 2047.99,428.701 2051.53,432.249C2055.08,435.796 2056.86,440.061 2056.86,445.043C2056.86,450.025 2055.08,454.252 2051.53,457.725C2047.99,461.197 2043.72,462.933 2038.74,462.933Z" style="fill:rgb(66,66,66);fill-rule:nonzero;"/>
            </g>
        </g>
    </g>
</svg>
