<?xml version="1.0" encoding="UTF-8" standalone="no"?>
<!DOCTYPE svg PUBLIC "-//W3C//DTD SVG 1.1//EN" "http://www.w3.org/Graphics/SVG/1.1/DTD/svg11.dtd">
<svg width="100%" height="100%" viewBox="0 0 480 457" version="1.1" xmlns="http://www.w3.org/2000/svg" xmlns:xlink="http://www.w3.org/1999/xlink" xml:space="preserve" xmlns:serif="http://www.serif.com/" style="fill-rule:evenodd;clip-rule:evenodd;stroke-linejoin:round;stroke-miterlimit:2;">
    <g transform="matrix(1,0,0,1,-3025,-158)">
        <rect id="Artboard2" x="2832" y="0" width="2732" height="2048" style="fill:none;"/>
        <g id="Artboard21" serif:id="Artboard2">
            <g transform="matrix(1,0,0,1,2823,-317)">
                <path d="M260.074,626.265C246.453,633.413 255.363,585.084 255.845,583.155C258.177,573.83 271.993,564.559 279.126,559.209C311.227,535.133 311.092,533.643 350.962,527.947C363.717,526.125 365.825,524.928 373.577,535.264C380.914,545.046 374.446,571.188 373.577,582.49C369.338,637.593 347.32,689.729 342.315,744.786C340.506,764.689 330.598,816.162 342.98,809.971C343.184,809.869 372.735,762.013 374.907,758.754C407.242,710.253 432.163,657.854 460.712,607.1C464.872,599.705 470.264,594.887 476.01,589.141C493.407,571.745 506.535,559.137 507.272,559.874C515.862,568.463 511.929,601.53 511.929,612.421C511.929,666.192 505.277,719.631 505.277,773.388C505.277,781.466 502.227,828.206 508.603,834.582C511.133,837.112 515.035,823.845 515.254,823.274C517.882,816.442 520.724,809.918 523.901,803.32C533.113,784.188 540.563,764.568 551.172,746.117C582.668,691.341 610.761,635.587 638.972,579.164" style="fill:none;"/>
            </g>
        </g>
    </g>
</svg>
