<svg xmlns="http://www.w3.org/2000/svg" width="100" height="100" viewBox="0 0 4975 2548" stroke-linejoin="round"><rect x="-350" y="-897.9" width="5691.7" height="4266.7" fill="none"/><path d="M363.8 218.2c-41.8 8.7-75.9 27.1-102.5 55 -26.6 27.9-43.5 64.6-50.7 110.1 -3.3 20.5-3.6 35.1-1 43.8 2.6 8.7 3.8 13.5 3.7 14.7 -30-4.7-51.3-14.5-64-29.3 -12.7-14.8-16.8-36.6-12.2-65.5 5.6-35.5 25.7-67.7 60.1-96.7 34.4-28.9 76-50.2 124.8-63.8 48.8-13.6 95.9-16.8 141.4-9.6 7.8 1.2 18.8 3.5 33 6.9l-73.6 512.8 255.4-481.5 105.7 16.7 -73.2 510.3 255.4-481.5 58.2 9.2 -329.5 583.2 -119.8-19 57.1-425.1 -225.1 398.4 -119.8-19 76.7-570.3Z"/><path d="M1079.7 441.6c-18.3-2.9-32.8-11.7-43.6-26.5 -10.7-14.8-14.7-31.3-11.8-49.6 2.9-18.3 11.8-33 26.6-44 14.8-11 31.4-15.1 49.7-12.2 18.3 2.9 32.9 11.9 43.9 27 11 15.1 15 31.8 12.1 50.1 -2.9 18.3-11.9 32.8-26.9 43.5 -15.1 10.7-31.7 14.6-50 11.7Zm-130.4 456.9c-26.6-4.2-46.8-15.9-60.5-35.2 -13.7-19.2-18-45.5-12.7-78.8 2.2-13.9 7.3-31.5 15.2-53l98.9-258.1 119.8 19 -104.7 273.4c-3.5 8-6.1 16.7-7.5 26.1 -1.8 11.1-0.4 19.4 4.1 25 4.5 5.5 12.9 9.3 25.1 11.2 16.1 2.5 32.1-1.9 48.2-13.3 16-11.4 28.8-27.4 38.3-48.1l34.9 5.5c-30 56.7-62.8 93.1-98.3 109.4 -35.6 16.3-69.1 21.9-100.7 16.9Z"/><path d="M1171.5 933.7c-26.6-4.2-46.8-15.9-60.5-35.2 -13.7-19.2-18-45.5-12.7-78.8 2.2-13.9 7.3-31.5 15.2-53l86.9-225.9 -27.5-4.3 11.9-32.2 27.5 4.3 43.1-110.9 125.8 2.9 -49.1 127 49.9 7.9 -11.9 32.2 -49.9-7.9 -92.8 241.2c-3.5 8-6.1 16.7-7.5 26.1 -1.8 11.1-0.4 19.4 4.1 25 4.5 5.5 12.9 9.3 25.1 11.2 16.1 2.5 32.1-1.9 48.2-13.3 16-11.4 28.8-27.4 38.3-48.1l34.9 5.5c-30 56.7-62.8 93.1-98.3 109.4 -35.6 16.3-69.1 21.9-100.7 16.9Z"/><path d="M1596.6 1001.1c-29.4-4.7-49.3-16.9-59.8-36.8 -10.5-19.9-13.6-43.4-9.3-70.6 1.8-11.6 5.3-24.6 10.4-38.9 5.1-14.3 10.3-28.1 15.5-41.5 5.2-13.4 8.7-21.9 10.5-25.6 7.5-18.7 14.7-37.2 21.6-55.4 6.9-18.2 11.2-33.2 13.1-44.8 4.5-28.3-3.3-44-23.2-47.2 -13.3-2.1-26.3 2.1-39.1 12.6 -12.7 10.5-24 25.2-33.8 44.1l-102.9 267.7 -119.8-19 210.2-546.6 125.8 2.9 -78 201.7c32.6-26.1 67.4-36.2 104.6-30.3 28.3 4.5 49.5 15.8 63.7 34 14.2 18.2 18.8 43.1 13.8 74.7 -2.5 16.1-7.3 33.7-14.3 52.7 -7 19.1-16.3 42.2-28 69.3 -7.2 16.5-13.8 32.6-20 48.4 -6.2 15.8-10 28.4-11.5 37.8 -1.8 11.1-0.6 20.1 3.4 27 4 6.9 12.1 11.3 24.3 13.2 13.3 2.1 22.7 1.9 28.2-0.6 -7.8 27.8-21.3 47.5-40.5 59.3 -19.2 11.7-40.7 15.7-64.6 11.9Z"/><path d="M2035.8 1162.7c-20.5-3.2-38.3-7.8-53.3-13.6 -15-5.8-27.2-16-36.5-30.5 -9.3-14.6-11.9-35.1-7.7-61.8 5.9-37.2 25-85.3 57.4-144.4 32.4-59.1 71.9-117.4 118.5-174.8 -28-2.7-50.6-2-67.7 2.1 -17.1 4.1-29.3 12.7-36.5 25.8 2.2 0.4 4.1 3.5 5.8 9.4 1.6 5.9 1.9 12 1 18.1 -1.6 10-7.3 17.2-17.1 21.6 -9.8 4.4-21.4 5.6-34.7 3.5 -15.5-2.5-27.4-8.6-35.5-18.4 -8.1-9.8-10.9-22.5-8.5-38 3-18.9 13.1-34.9 30.2-48.1 17.2-13.2 39.5-22.3 67-27.3 27.5-5 57.1-5 88.7 0 11.6 1.8 25.9 5 42.9 9.3 56.9-64.9 114.4-116.2 172.3-153.9 58-37.7 110-52.9 156-45.6 26.6 4.2 47.9 11.6 63.9 22.1l-227.6 591.6 -119.8-19 111.9-291.9c-19-12.7-36.8-22.6-53.3-29.8 -16.5-7.2-34.3-13.1-53.5-17.8 -42.4 63.2-79.4 128.9-110.9 196.9 -31.5 68.1-50.7 123.5-57.4 166.2 -3.3 21.1-1.9 37.2 4.3 48.4Zm368.2-618c-25.9 9-54.4 28.8-85.7 59.3 -31.3 30.6-63 68.6-95.3 114.1 38.7 14.1 71 29.2 96.9 45.2l84.1-218.7Z"/><path d="M2807.2 1203c-34.9-5.5-64.8-16.5-89.4-32.9 -24.7-16.4-42.5-36.7-53.5-60.9 -11-24.2-14.1-50.7-9.6-79.5 3.9-24.4 12.5-45.8 25.9-64.1 13.4-18.3 29.8-32 49.1-40.8 19.3-8.9 39.5-11.7 60.6-8.3 19.4 3.1 35 10.5 46.8 22.3 11.8 11.8 18 26.6 18.6 44.3 -28.8-4.6-53.1-0.6-72.7 11.9 -19.6 12.5-31.5 31.8-35.6 57.9 -3.8 23.9 0.4 44.1 12.5 60.8 12.1 16.7 30.1 26.9 54 30.7 29.4 4.7 55.2-1.3 77.5-18 22.3-16.7 35.8-40 40.5-69.9 4.1-26.1 0.8-51.9-9.9-77.5 -10.7-25.6-27.9-57.3-51.5-95.1 -24.5-39.1-42.4-72.2-53.8-99.3 -11.3-27.1-14.7-55.3-10-84.7 4.6-28.8 16.7-53.5 36.4-74 19.7-20.5 44.8-35.1 75.2-44 30.4-8.8 63.3-10.4 98.8-4.8 44.9 7.1 79.2 23.3 102.7 48.7 23.6 25.3 32.5 55.8 26.9 91.3 -3.7 23.3-12.5 41.2-26.4 53.8 -13.9 12.6-30.3 17.4-49.2 14.4 -21.1-3.3-36.6-14.6-46.7-33.8 11.8-6.1 21.7-15 29.8-26.8 8.1-11.8 13.3-24.6 15.5-38.5 2.8-17.7-0.2-32.7-9.1-44.9 -8.9-12.2-22.5-19.8-40.8-22.7 -22.2-3.5-41.6 1.5-58.2 15.1 -16.6 13.6-26.9 32.6-30.8 57 -3.5 22.2-0.4 43.9 9.3 65 9.7 21.2 25.8 48.9 48.2 83.1 18.4 27.4 33 50.7 43.9 70.1 10.9 19.3 19.4 41 25.5 65 6.1 24 7.2 49 3 75.1 -5.6 35.5-20.6 66.1-44.8 91.8 -24.3 25.7-54.8 44.2-91.5 55.4 -36.7 11.2-75.9 13.6-117.5 7Z"/><path d="M3214 794.1l119.8 19 -23.2 60.3c31.5-19.5 65.8-26.2 103-20.4 31.1 4.9 54.1 19.1 69.2 42.5 15.1 23.4 18.9 58.4 11.5 105 -6.9 43.8-20.3 87-40.2 129.7 -19.8 42.6-47.5 77.2-82.9 103.7 -35.5 26.5-78.2 35.8-128.1 27.9 -35.5-5.6-57.5-19.3-66-41.2l-75.4 196.1 -130.4 10.1 242.6-632.7Zm14.8 391.2c26.6 4.2 50.6-4.8 72.1-27 21.4-22.2 38.9-50 52.4-83.4 13.5-33.4 22.7-65.1 27.4-95 7.3-46-2.9-71.2-30.7-75.6 -10-1.6-20.7 0.4-32.1 6 -11.4 5.6-22 14.1-31.8 25.7l-86 225.2c2.4 13.5 11.9 21.5 28.6 24.1Z"/><path d="M3550.9 1310.6c-26.6-4.2-46.8-15.9-60.5-35.2 -13.7-19.2-18-45.5-12.7-78.8 2.2-13.9 7.3-31.5 15.2-53l155-402.7 125.8 2.9 -166.8 434.1c-3.5 8-6.1 16.7-7.5 26.1 -1.8 11.1-0.4 19.4 4.1 25 4.5 5.5 12.9 9.3 25.1 11.2 16.1 2.5 32.1-1.9 48.2-13.3 16-11.4 28.8-27.4 38.3-48.1l34.9 5.5c-30 56.7-62.8 93.1-98.3 109.4 -35.6 16.3-69.1 21.9-100.7 16.9Z"/><path d="M3790.5 1348.5c-31.6-5-56.2-20-73.9-45 -17.6-25-22.8-60.5-15.5-106.5 6.5-41 21.5-82.9 45-125.5 23.5-42.6 54-77 91.4-103.2 37.4-26.2 78.6-35.7 123.5-28.6 22.7 3.6 39 10.2 48.9 19.7 9.9 9.5 13.8 20.7 11.8 33.4l-0.9 5.8 16.1-42.6 119.8 19 -104.7 273.4c-3.5 8-6.1 16.7-7.5 26.1 -3.8 23.8 5.7 37.6 28.4 41.2 15.5 2.5 30.1-2.6 43.8-15.2 13.7-12.6 25.7-30 36-52.3l34.9 5.5c-30 56.7-61.8 93.3-95.4 109.8 -33.6 16.6-65.7 22.4-96.2 17.6 -23.3-3.7-41-13.2-53.1-28.4 -12.1-15.3-17.5-35.6-16.3-61 -19.7 20.2-40.5 35.8-62.4 46.8 -21.9 11-46.5 14.4-73.7 10.1Zm66.9-72.1c13.9 2.2 28.6-2.1 44.3-13 15.7-10.9 27.8-27.3 36.4-49.2l69.7-181.7c1.1-7.2-0.5-14.7-5-22.5 -4.4-7.8-12.5-12.6-24.1-14.5 -22.2-3.5-44.2 6.2-66 29.2 -21.8 23-40.6 51.8-56.4 86.6 -15.7 34.7-25.8 66-30.2 93.7 -4.4 27.7-3.2 46.1 3.6 55.2 6.8 9 16 14.5 27.7 16.3Z"/><path d="M4223.2 1417.1c-26.6-4.2-48.3-12.9-65-26.1 -16.7-13.2-28.2-28.6-34.4-46.4 -6.3-17.8-8-35.5-5.2-53.3 2.9-18.3 9.7-33.6 20.5-45.8 10.7-12.2 22.7-20.4 35.9-24.6 27.8-35.4 52.9-71.7 75.2-108.8 22.4-37.1 44.4-77.5 66.1-121.3l125.8 2.9c-8.5 71.4-15.9 149-22.4 232.7 -2.5 33.7-4.9 58.1-7.3 73 -2 12.8-4.8 23.1-8.3 31.1 28.4-10.8 50.6-21.5 66.5-32.1l34.9 5.5c-42 35.4-89.9 63.4-143.8 83.8 -18.8 14.6-40.6 24.1-65.5 28.4 -24.8 4.3-49.2 4.6-73 0.8Zm-16.2-69.9c20.5 3.3 38.7-0.1 54.5-10.1 15.8-10 25.9-28.6 30.2-55.8 2.6-16.6 4.7-40.2 6.1-70.7 4.5-64.1 7.6-107.1 9.3-129 -20.3 41.7-51 90.6-92.3 146.6 11.7 8.7 16.5 19.4 14.5 32.1 -1.7 10.5-6.6 19.4-14.9 26.6 -8.2 7.2-17.6 10-28.2 8.3 -11.6-1.8-18.6-6.6-20.7-14.4 -3.2 20-1.5 35.3 5.1 46 6.5 10.7 18.7 17.5 36.4 20.3Z"/><path d="M4731.5 1497.6c-29.4-4.7-49.3-16.9-59.8-36.8 -10.5-19.9-13.6-43.4-9.3-70.6 1.8-11.6 5.3-24.6 10.4-38.9 5.1-14.3 10.3-28.1 15.5-41.5 5.2-13.4 8.7-21.9 10.5-25.6 7.5-18.7 14.7-37.2 21.6-55.4 6.9-18.2 11.2-33.2 13.1-44.8 4.5-28.3-3.3-44-23.2-47.2 -13.3-2.1-26.3 2.1-39.1 12.6 -12.7 10.5-24 25.2-33.8 44.1l-102.9 267.7 -119.8-19 210.2-546.6 125.8 2.9 -78 201.7c32.6-26.1 67.4-36.2 104.6-30.3 28.3 4.5 49.5 15.8 63.7 34 14.2 18.2 18.8 43.1 13.8 74.7 -2.5 16.1-7.3 33.7-14.3 52.7 -7 19.1-16.3 42.2-28 69.3 -7.2 16.5-13.8 32.6-20 48.4 -6.2 15.8-10 28.4-11.5 37.8 -1.8 11.1-0.6 20.1 3.4 27 4 6.9 12.1 11.3 24.3 13.2 13.3 2.1 22.7 1.9 28.2-0.6 -7.8 27.8-21.3 47.5-40.5 59.3 -19.2 11.7-40.7 15.7-64.6 11.9Z"/><path d="M1275.9 1968.4c-41-6.5-71.8-22.2-92.3-47 -20.5-24.9-27.2-60-20-105.5 6-37.7 20.4-78.4 43.2-121.9 22.8-43.6 54.1-79.4 93.8-107.5 39.7-28.1 85.6-38 137.8-29.8 71 11.2 99.5 61.2 85.4 150l-0.1 0.8c1.6 0.8 4.6 1.6 9 2.3 18.3 2.9 40.1 1.4 65.5-4.5 25.4-5.9 48.9-14.3 70.5-25.1l3.9 23.6c-18.8 14.6-42.1 25.9-69.7 33.7 -27.7 7.8-57.2 11.8-88.5 12 -12.4 49.8-30.8 92.1-55.1 126.9 -24.3 34.8-52.5 60.2-84.6 76.2 -32.1 16-65.1 21.3-98.9 15.9Zm45.1-69.6c13.3 2.1 27.8-3.4 43.6-16.6 15.7-13.1 30.7-32.1 44.8-56.9 14.2-24.8 26-52.9 35.5-84.3 -14.4-5.7-20.1-18.5-16.9-38.5 3.6-22.7 14.6-36.4 32.9-40.8 1.8-18.5 1-31.5-2.3-39.2 -3.3-7.6-10.6-12.3-21.6-14.1 -18.3-2.9-38.2 7.6-59.6 31.5 -21.4 23.9-40.3 53.6-56.8 89.1 -16.4 35.5-26.9 67.4-31.4 95.7 -4.2 26.6-4 45 0.7 55.1 4.7 10.1 15 16.5 31.1 19Z"/><path d="M1412.3 2199.8c-26.1-4.1-47.6-16.2-64.6-36.2 -17-20-23.5-43.1-19.3-69.2 3.8-23.8 13-42.6 27.7-56.2 14.7-13.6 32.4-23.4 53.3-29.5 20.9-6.1 48.2-11.6 81.9-16.4l175.9-459.1c19.5-51.5 44.9-85.3 76.2-101.4 31.3-16.1 63.8-21.4 97.6-16.1 26.1 4.1 47.6 16.2 64.6 36.2 17 20 23.5 43.1 19.3 69.2 -2 12.8-4.7 24-7.9 33.7l-39.1-6.2c3-12 4.8-19.4 5.2-22.2 1.4-8.9-0.5-16.3-5.9-22.2 -5.3-6-12.4-9.6-21.3-11 -11.6-1.8-23.8 1.5-36.5 10 -12.7 8.5-23.5 24.8-32.5 49l-24.6 63.5 60.7 9.6 -11.1 32.4 -61.6-9.8 -166.8 434.1c-19.6 52-44.6 86-75 102 -30.4 15.9-62.5 21.2-96.3 15.9Zm-7.4-77.1c22.2 3.5 41.4-15.6 57.7-57.4l18.5-46.5c-31 5.3-55.4 13.3-73.3 23.8 -17.9 10.5-28.5 26.3-31.8 47.4 -1.1 6.7 1.3 13.4 7 20.3 5.7 6.9 13 11 21.9 12.4Z"/><path d="M2118.7 2112.1c-62.7-9.9-106.2-33-130.6-69.3 -24.4-36.3-30.8-91-19.2-164.2 9.2-58.2 29-119.4 59.3-183.3 30.3-64 71-116.5 122.2-157.6 51.1-41.1 110.3-56.3 177.4-45.7 41.6 6.6 73.7 21.1 96.3 43.4 22.6 22.3 30.9 52.4 25 90.1 -3.8 23.9-11.5 41.8-23 53.9 -11.6 12.1-27.4 16.6-47.3 13.4 -20-3.2-34.6-12.9-44-29.1 10.8-3.4 21.2-12 31.4-25.7 10.1-13.7 16.5-28.7 19-44.7 2.4-15 0.3-27.8-6.3-38.5 -6.5-10.7-18.7-17.5-36.4-20.3 -29.4-4.7-60.6 11-93.6 47 -33 36-62.5 83.2-88.5 141.6 -26 58.4-43.5 115.9-52.5 172.5 -6.7 42.2-4.6 75.5 6.3 99.9 10.9 24.5 35.2 39.7 72.9 45.7 32.7 5.2 64.1 2.8 94.1-7.3 30-10 57.1-26.8 81.3-50.2l17.8 11.4c-19.4 32.7-44.5 58.6-75.4 77.6 -30.9 19-62.7 31.4-95.5 37.3 -32.8 5.9-63 6.6-90.8 2.3Z"/><path d="M2457.2 2155.5c-41-6.5-71.8-22.2-92.3-47 -20.5-24.9-27.2-60-20-105.5 6-37.7 20.4-78.4 43.2-121.9 22.8-43.6 54.1-79.4 93.8-107.5 39.7-28.1 85.6-38 137.8-29.8 71 11.2 99.5 61.2 85.4 150l-0.1 0.8c1.6 0.8 4.6 1.6 9 2.3 18.3 2.9 40.1 1.4 65.5-4.5 25.4-5.9 48.9-14.3 70.5-25.1l3.9 23.6c-18.8 14.6-42.1 25.9-69.7 33.7 -27.7 7.8-57.2 11.8-88.5 12 -12.4 49.8-30.8 92.1-55.1 126.9 -24.3 34.8-52.5 60.2-84.6 76.2 -32.1 16-65.1 21.3-98.9 15.9Zm45.1-69.6c13.3 2.1 27.8-3.4 43.6-16.6 15.7-13.1 30.7-32.1 44.8-56.9 14.2-24.8 26-52.9 35.5-84.3 -14.4-5.7-20.1-18.5-16.9-38.5 3.6-22.7 14.6-36.4 32.9-40.8 1.8-18.5 1-31.5-2.3-39.2 -3.3-7.6-10.6-12.3-21.6-14.1 -18.3-2.9-38.2 7.6-59.6 31.5 -21.4 23.9-40.3 53.6-56.8 89.1 -16.4 35.5-26.9 67.4-31.4 95.7 -4.2 26.6-4 45 0.7 55.1 4.7 10.1 15 16.5 31.1 19Z"/><path d="M2783.1 2208.8c-26.6-4.2-46.8-15.9-60.5-35.2 -13.7-19.2-18-45.5-12.7-78.8 2.2-13.9 7.3-31.5 15.2-53l155-402.7 125.8 2.9 -166.8 434.1c-3.5 8-6.1 16.7-7.5 26.1 -1.8 11.1-0.4 19.4 4.1 25 4.5 5.5 12.9 9.3 25.1 11.2 16.1 2.5 32.1-1.9 48.2-13.3 16-11.4 28.8-27.4 38.3-48.1l34.9 5.5c-30 56.7-62.8 93.1-98.3 109.4 -35.6 16.3-69.1 21.9-100.7 16.9Z"/><path d="M3044.6 2248.5c-41-6.5-71.8-22.2-92.3-47 -20.5-24.9-27.2-60-20-105.5 6-37.7 20.4-78.4 43.2-121.9 22.8-43.6 54.1-79.4 93.8-107.5 39.7-28.1 85.6-38 137.8-29.8 71 11.2 99.5 61.2 85.4 150l-0.1 0.8c1.6 0.8 4.6 1.6 9 2.3 18.3 2.9 40.1 1.4 65.5-4.5 25.4-5.9 48.9-14.3 70.5-25.1l3.9 23.6c-18.8 14.6-42.1 25.9-69.7 33.7 -27.7 7.8-57.2 11.8-88.5 12 -12.4 49.8-30.8 92.1-55.1 126.9 -24.3 34.8-52.5 60.2-84.6 76.2 -32.1 16-65.1 21.3-98.9 15.9Zm45.1-69.6c13.3 2.1 27.8-3.4 43.6-16.6 15.7-13.1 30.7-32.1 44.8-56.9 14.2-24.8 26-52.9 35.5-84.3 -14.4-5.7-20.1-18.5-16.9-38.5 3.6-22.7 14.6-36.4 32.9-40.8 1.8-18.5 1-31.5-2.3-39.2 -3.3-7.6-10.6-12.3-21.6-14.1 -18.3-2.9-38.2 7.6-59.6 31.5 -21.4 23.9-40.3 53.6-56.8 89.1 -16.4 35.5-26.9 67.4-31.4 95.7 -4.2 26.6-4 45 0.7 55.1 4.7 10.1 15 16.5 31.1 19Z"/><path d="M3411.4 1876.8l119.8 19 -19 49.9c21.5-13.7 40.6-23.7 57.2-30.2 16.7-6.5 33.9-8.3 51.6-5.5 17.7 2.8 30.8 11.1 39.1 25 8.3 13.8 11.1 29.3 8.4 46.5 -2.5 16.1-10.1 29.4-22.5 39.9 -12.5 10.5-28.1 14.3-47 11.3 -12.2-1.9-19.9-6.1-23.2-12.6 -3.2-6.5-5.1-15.4-5.5-26.9 -0.5-7.5-1.4-13-2.5-16.6 -1.1-3.6-3.9-5.7-8.4-6.4 -11.6-1.8-21.9-1-30.7 2.4 -8.8 3.4-20.5 10-35.1 19.6l-116.6 305.6 -119.8-19 154.1-402Z"/></svg>
